<svg xmlns="http://www.w3.org/2000/svg" width="21" height="21" viewBox="0 0 21 21" fill="none">
  <g clip-path="url(#clip0_1_248)">
    <path d="M1.26228 11.975C1.3482 11.9889 1.43516 11.9954 1.52217 11.9942L16.3372 11.9942L16.0142 12.1445C15.6984 12.2939 15.4112 12.4973 15.1653 12.7455L11.0107 16.9C10.4636 17.4223 10.3717 18.2626 10.7929 18.8909C11.2831 19.5604 12.2233 19.7058 12.8929 19.2155C12.947 19.1759 12.9984 19.1327 13.0467 19.0862L20.5594 11.5735C21.1465 10.9871 21.147 10.0357 20.5606 9.4486C20.5602 9.44822 20.5598 9.4478 20.5594 9.44742L13.0467 1.93473C12.4591 1.34879 11.5078 1.3501 10.9218 1.93769C10.8757 1.98394 10.8326 2.03315 10.7929 2.08498C10.3717 2.71328 10.4636 3.55353 11.0107 4.07585L15.1578 8.23788C15.3782 8.45857 15.6317 8.64361 15.909 8.78631L16.3598 8.98915L1.60486 8.98915C0.837294 8.96065 0.163874 9.49682 0.0196762 10.2513C-0.113157 11.0704 0.443159 11.8421 1.26228 11.975Z" fill="#D80027"/>
  </g>
  <defs>
    <clipPath id="clip0_1_248">
      <rect width="21" height="21" fill="white" transform="matrix(-1 0 0 -1 21 21)"/>
    </clipPath>
  </defs>
</svg>